<svg width="1440" height="1500" viewBox="0 0 1440 1500" fill="none" xmlns="http://www.w3.org/2000/svg">
<g style="mix-blend-mode:plus-darker" opacity="0.7" clip-path="url(#clip0_25_263)">
<rect width="1500" height="1441" transform="matrix(-5.98511e-08 -1 -1 3.1924e-08 1440 1500)" fill="#F8FAFC"/>
<g filter="url(#filter0_f_25_263)">
<path d="M1724.63 664.034C1888.29 593.861 1928.35 426.246 1814.11 289.654L1396.34 -209.823C1282.09 -346.415 1056.8 -400.258 893.142 -330.085L100.228 9.88914C-63.4336 80.0618 -103.493 247.677 10.7531 384.268L428.52 883.746C542.766 1020.34 768.055 1074.18 931.717 1004.01L1724.63 664.034Z" fill="url(#paint0_radial_25_263)"/>
</g>
<g filter="url(#filter1_f_25_263)">
<path d="M326.45 703.587C486.047 635.157 525.111 471.705 413.702 338.506C302.294 205.307 82.6009 152.802 -76.9959 221.231L-171.343 261.684C-330.94 330.114 -370.004 493.566 -258.596 626.765C-147.188 759.963 72.5056 812.469 232.102 744.04L326.45 703.587Z" fill="url(#paint1_radial_25_263)"/>
</g>
<g style="mix-blend-mode:color-dodge" filter="url(#filter2_f_25_263)">
<path d="M1777.91 733.933C1980.8 788.321 2224.18 681.515 2321.52 495.374L2403.93 337.763C2501.27 151.623 2415.7 -43.3632 2212.81 -97.751L1788.36 -211.532C1585.47 -265.92 1342.08 -159.114 1244.75 27.0267L1162.33 184.638C1064.99 370.778 1150.56 565.764 1353.45 620.152L1777.91 733.933Z" fill="url(#paint2_radial_25_263)"/>
</g>
<g style="mix-blend-mode:darken" filter="url(#filter3_f_25_263)">
<path d="M417.889 296.726C247.603 447.798 202.392 618.46 201.073 684.907C209.82 819.682 235.188 1028.56 266.683 785.897C306.053 482.563 472.457 433.898 766.578 164.346C1001.88 -51.2965 878.946 -106.068 788.07 -106.498L631.104 -27.6624C630.985 17.5203 588.174 145.654 417.889 296.726Z" fill="url(#paint3_radial_25_263)"/>
</g>
<g style="mix-blend-mode:darken" filter="url(#filter4_f_25_263)">
<path d="M806.958 154.338C636.673 305.41 591.462 476.072 590.143 542.519C598.89 677.293 624.258 886.176 655.753 643.509C695.123 340.175 861.527 291.51 1155.65 21.9576C1390.94 -193.685 1268.02 -248.456 1177.14 -248.886L1020.17 -170.05C1020.05 -124.868 977.244 3.26568 806.958 154.338Z" fill="url(#paint4_radial_25_263)"/>
</g>
<g style="mix-blend-mode:darken" filter="url(#filter5_f_25_263)">
<path d="M-127.89 896.919C-298.176 1047.99 -343.386 1218.65 -344.706 1285.1C-335.959 1419.87 -310.591 1628.76 -279.095 1386.09C-239.726 1082.76 -73.3221 1034.09 220.799 764.539C456.096 548.896 333.167 494.125 242.291 493.695L85.3252 572.53C85.2057 617.713 42.3954 745.847 -127.89 896.919Z" fill="url(#paint5_radial_25_263)"/>
</g>
<g style="mix-blend-mode:screen" filter="url(#filter6_f_25_263)">
<path fill-rule="evenodd" clip-rule="evenodd" d="M724.872 418.108C756.927 345.411 812.068 259.734 902.425 179.572C1072.71 28.4995 1115.52 -99.6339 1115.64 -144.817L1272.61 -223.652C1363.48 -223.222 1486.41 -168.451 1251.11 47.1914C1179.18 113.12 1114.88 165.835 1058.21 212.295C960.184 292.662 884.991 354.31 832.579 433.257C872.792 463.906 875.413 527.904 754.041 648.836C753.037 655.349 752.097 661.983 751.219 668.743C729.645 834.97 710.946 789.319 698.494 700.745C635.802 757.076 579.188 803.491 528.644 844.93C353.625 988.421 251.392 1072.24 221.652 1301.38C190.156 1544.05 164.788 1335.16 156.041 1200.39C157.361 1133.94 202.572 963.28 372.857 812.208C543.143 661.136 585.953 533.002 586.073 487.819L724.872 418.108Z" fill="url(#paint6_radial_25_263)"/>
</g>
<g style="mix-blend-mode:screen" filter="url(#filter7_f_25_263)">
<path d="M1212.24 76.8353C1041.95 227.907 996.744 398.569 995.424 465.016C1004.17 599.791 1029.54 808.674 1061.03 566.007C1100.4 262.673 1266.81 214.008 1560.93 -55.5449C1796.23 -271.187 1673.3 -325.958 1582.42 -326.388L1425.46 -247.553C1425.34 -202.37 1382.53 -74.2368 1212.24 76.8353Z" fill="url(#paint7_radial_25_263)"/>
</g>
<g style="mix-blend-mode:darken" filter="url(#filter8_f_25_263)">
<path d="M1158.68 372.192C847.426 455.101 681.951 642.248 638.121 725.458C563.669 901.491 463.22 1181.82 657.034 894.882C899.302 536.208 1140.67 580.367 1683.75 426.263C2118.21 302.98 1997.46 155.605 1882.78 97.3285L1634.21 97.3285C1605.39 154.404 1469.94 289.282 1158.68 372.192Z" fill="url(#paint8_radial_25_263)"/>
</g>
</g>
<defs>
<filter id="filter0_f_25_263" x="-189.461" y="-495.996" width="2203.78" height="1665.91" filterUnits="userSpaceOnUse" color-interpolation-filters="sRGB">
<feFlood flood-opacity="0" result="BackgroundImageFix"/>
<feBlend mode="normal" in="SourceGraphic" in2="BackgroundImageFix" result="shape"/>
<feGaussianBlur stdDeviation="67.5618" result="effect1_foregroundBlur_25_263"/>
</filter>
<filter id="filter1_f_25_263" x="-457.193" y="56.0852" width="1069.49" height="853.1" filterUnits="userSpaceOnUse" color-interpolation-filters="sRGB">
<feFlood flood-opacity="0" result="BackgroundImageFix"/>
<feBlend mode="normal" in="SourceGraphic" in2="BackgroundImageFix" result="shape"/>
<feGaussianBlur stdDeviation="67.5618" result="effect1_foregroundBlur_25_263"/>
</filter>
<filter id="filter2_f_25_263" x="1001.5" y="-346.362" width="1563.26" height="1215.13" filterUnits="userSpaceOnUse" color-interpolation-filters="sRGB">
<feFlood flood-opacity="0" result="BackgroundImageFix"/>
<feBlend mode="normal" in="SourceGraphic" in2="BackgroundImageFix" result="shape"/>
<feGaussianBlur stdDeviation="60.323" result="effect1_foregroundBlur_25_263"/>
</filter>
<filter id="filter3_f_25_263" x="152.073" y="-155.498" width="799.362" height="1102.01" filterUnits="userSpaceOnUse" color-interpolation-filters="sRGB">
<feFlood flood-opacity="0" result="BackgroundImageFix"/>
<feBlend mode="normal" in="SourceGraphic" in2="BackgroundImageFix" result="shape"/>
<feGaussianBlur stdDeviation="24.5" result="effect1_foregroundBlur_25_263"/>
</filter>
<filter id="filter4_f_25_263" x="541.143" y="-297.886" width="799.362" height="1102.01" filterUnits="userSpaceOnUse" color-interpolation-filters="sRGB">
<feFlood flood-opacity="0" result="BackgroundImageFix"/>
<feBlend mode="normal" in="SourceGraphic" in2="BackgroundImageFix" result="shape"/>
<feGaussianBlur stdDeviation="24.5" result="effect1_foregroundBlur_25_263"/>
</filter>
<filter id="filter5_f_25_263" x="-393.706" y="444.695" width="799.362" height="1102.01" filterUnits="userSpaceOnUse" color-interpolation-filters="sRGB">
<feFlood flood-opacity="0" result="BackgroundImageFix"/>
<feBlend mode="normal" in="SourceGraphic" in2="BackgroundImageFix" result="shape"/>
<feGaussianBlur stdDeviation="24.5" result="effect1_foregroundBlur_25_263"/>
</filter>
<filter id="filter6_f_25_263" x="107.042" y="-272.652" width="1328.93" height="1734.65" filterUnits="userSpaceOnUse" color-interpolation-filters="sRGB">
<feFlood flood-opacity="0" result="BackgroundImageFix"/>
<feBlend mode="normal" in="SourceGraphic" in2="BackgroundImageFix" result="shape"/>
<feGaussianBlur stdDeviation="24.5" result="effect1_foregroundBlur_25_263"/>
</filter>
<filter id="filter7_f_25_263" x="946.424" y="-375.388" width="799.362" height="1102.01" filterUnits="userSpaceOnUse" color-interpolation-filters="sRGB">
<feFlood flood-opacity="0" result="BackgroundImageFix"/>
<feBlend mode="normal" in="SourceGraphic" in2="BackgroundImageFix" result="shape"/>
<feGaussianBlur stdDeviation="24.5" result="effect1_foregroundBlur_25_263"/>
</filter>
<filter id="filter8_f_25_263" x="495.779" y="48.3285" width="1543.49" height="1018.87" filterUnits="userSpaceOnUse" color-interpolation-filters="sRGB">
<feFlood flood-opacity="0" result="BackgroundImageFix"/>
<feBlend mode="normal" in="SourceGraphic" in2="BackgroundImageFix" result="shape"/>
<feGaussianBlur stdDeviation="24.5" result="effect1_foregroundBlur_25_263"/>
</filter>
<radialGradient id="paint0_radial_25_263" cx="0" cy="0" r="1" gradientUnits="userSpaceOnUse" gradientTransform="translate(822.189 443.269) rotate(-154.043) scale(776.061 658.219)">
<stop stop-color="#FEF9C3"/>
<stop offset="1" stop-color="#FEF2F2" stop-opacity="0.31"/>
</radialGradient>
<radialGradient id="paint1_radial_25_263" cx="0" cy="0" r="1" gradientUnits="userSpaceOnUse" gradientTransform="translate(33.768 534.217) rotate(-154.043) scale(376.552 319.374)">
<stop stop-color="#FEF9C3"/>
<stop offset="1" stop-color="#FEF2F2" stop-opacity="0.31"/>
</radialGradient>
<radialGradient id="paint2_radial_25_263" cx="0" cy="0" r="1" gradientUnits="userSpaceOnUse" gradientTransform="translate(1615.68 404.229) rotate(-144.095) scale(508.827 484.435)">
<stop stop-color="#FEE2E2"/>
<stop offset="1" stop-color="#F257A0" stop-opacity="0"/>
</radialGradient>
<radialGradient id="paint3_radial_25_263" cx="0" cy="0" r="1" gradientUnits="userSpaceOnUse" gradientTransform="translate(626.241 176.068) rotate(122.816) scale(404.161 355.343)">
<stop stop-color="#FEE2E2"/>
<stop offset="1" stop-color="#FEFCE8" stop-opacity="0.3"/>
<stop offset="1" stop-color="#9FA7FF" stop-opacity="0.3"/>
</radialGradient>
<radialGradient id="paint4_radial_25_263" cx="0" cy="0" r="1" gradientUnits="userSpaceOnUse" gradientTransform="translate(1015.31 33.68) rotate(122.816) scale(404.161 355.343)">
<stop stop-color="#FEE2E2"/>
<stop offset="1" stop-color="#FEFCE8" stop-opacity="0.3"/>
<stop offset="1" stop-color="#9FA7FF" stop-opacity="0.3"/>
</radialGradient>
<radialGradient id="paint5_radial_25_263" cx="0" cy="0" r="1" gradientUnits="userSpaceOnUse" gradientTransform="translate(80.4622 776.261) rotate(122.816) scale(404.161 355.343)">
<stop stop-color="#FEE2E2"/>
<stop offset="1" stop-color="#FEFCE8" stop-opacity="0.3"/>
<stop offset="1" stop-color="#9FA7FF" stop-opacity="0.3"/>
</radialGradient>
<radialGradient id="paint6_radial_25_263" cx="0" cy="0" r="1" gradientUnits="userSpaceOnUse" gradientTransform="translate(581.21 691.55) rotate(122.816) scale(404.161 355.343)">
<stop stop-color="#FEE2E2"/>
<stop offset="1" stop-color="#FEFCE8" stop-opacity="0"/>
<stop offset="1" stop-color="#9FA7FF" stop-opacity="0"/>
</radialGradient>
<radialGradient id="paint7_radial_25_263" cx="0" cy="0" r="1" gradientUnits="userSpaceOnUse" gradientTransform="translate(1420.59 -43.8225) rotate(122.816) scale(404.161 355.343)">
<stop stop-color="#FEE2E2"/>
<stop offset="1" stop-color="#FEFCE8" stop-opacity="0.3"/>
<stop offset="1" stop-color="#9FA7FF" stop-opacity="0.3"/>
</radialGradient>
<radialGradient id="paint8_radial_25_263" cx="0" cy="0" r="1" gradientUnits="userSpaceOnUse" gradientTransform="translate(1498.79 351.936) rotate(149.471) scale(571.855 503.058)">
<stop stop-color="#FEE2E2"/>
<stop offset="1" stop-color="#FEFCE8" stop-opacity="0.3"/>
<stop offset="1" stop-color="#9FA7FF" stop-opacity="0.3"/>
</radialGradient>
<clipPath id="clip0_25_263">
<rect width="1500" height="1441" fill="white" transform="matrix(-5.98511e-08 -1 -1 3.1924e-08 1440 1500)"/>
</clipPath>
</defs>
</svg>
